Walking02_kinetics.mot
version=1
nRows=20
nColumns=19
inDegrees=yes
endheader
time	1_ground_force_vx	1_ground_force_vy	1_ground_force_vz	1_ground_force_px	1_ground_force_py	1_ground_force_pz	2_ground_force_vx	2_ground_force_vy	2_ground_force_vz	2_ground_force_px	2_ground_force_py	2_ground_force_pz	1_ground_torque_x	1_ground_torque_y	1_ground_torque_z	2_ground_torque_x	2_ground_torque_y	2_ground_torque_z
  0.73500000	 -8.52653397	462.13482172	 29.11330431	  0.32931356	 -0.00041358	 -0.15667653	  0.00000000	  0.00000000	  0.00000000	 -0.30181907	  0.00246885	  0.10097818	  0.00235640	 -1.82043678	 -0.00115890	  0.00000000	  0.00000000	  0.00000000
  0.73600000	 -8.18468565	460.28082515	 28.80770288	  0.32995716	 -0.00041267	 -0.15680005	  0.00000000	  0.00000000	  0.00000000	 -0.30181907	  0.00246885	  0.10097818	  0.00236603	 -1.82787618	 -0.00116363	  0.00000000	  0.00000000	  0.00000000
  0.73700000	 -7.83651785	458.43745159	 28.49045255	  0.33063819	 -0.00041171	 -0.15692389	  0.00000000	  0.00000000	  0.00000000	 -0.30181907	  0.00246885	  0.10097818	  0.00237210	 -1.83257080	 -0.00116662	  0.00000000	  0.00000000	  0.00000000
  0.73800000	 -7.48428720	456.59394765	 28.16654333	  0.33135105	 -0.00041071	 -0.15704384	  0.00000000	  0.00000000	  0.00000000	 -0.30181907	  0.00246885	  0.10097818	  0.00237459	 -1.83449099	 -0.00116784	  0.00000000	  0.00000000	  0.00000000
  0.73900000	 -7.13299803	454.74162431	 27.84088784	  0.33208830	 -0.00040968	 -0.15715640	  0.00000000	  0.00000000	  0.00000000	 -0.30181907	  0.00246885	  0.10097818	  0.00237419	 -1.83418554	 -0.00116765	  0.00000000	  0.00000000	  0.00000000
  0.74000000	 -6.78873001	452.87651037	 27.51801421	  0.33284143	 -0.00040864	 -0.15725950	  0.00000000	  0.00000000	  0.00000000	 -0.30181907	  0.00246885	  0.10097818	  0.00237236	 -1.83277088	 -0.00116675	  0.00000000	  0.00000000	  0.00000000
  0.74100000	 -6.45658391	451.00370981	 27.20199716	  0.33360144	 -0.00040760	 -0.15735275	  0.00000000	  0.00000000	  0.00000000	 -0.30181907	  0.00246885	  0.10097818	  0.00237093	 -1.83166286	 -0.00116604	  0.00000000	  0.00000000	  0.00000000
  0.74200000	 -6.13979999	449.14078175	 26.89678408	  0.33435936	 -0.00040656	 -0.15743760	  0.00000000	  0.00000000	  0.00000000	 -0.30181907	  0.00246885	  0.10097818	  0.00237172	 -1.83227178	 -0.00116643	  0.00000000	  0.00000000	  0.00000000
  0.74300000	 -5.84092299	447.31781055	 26.60688189	  0.33510688	 -0.00040555	 -0.15751723	  0.00000000	  0.00000000	  0.00000000	 -0.30181907	  0.00246885	  0.10097818	  0.00237631	 -1.83582203	 -0.00116869	  0.00000000	  0.00000000	  0.00000000
  0.74400000	 -5.56344435	445.57351256	 26.33770429	  0.33583675	 -0.00040455	 -0.15759613	  0.00000000	  0.00000000	  0.00000000	 -0.30181907	  0.00246885	  0.10097818	  0.00238594	 -1.84325784	 -0.00117342	  0.00000000	  0.00000000	  0.00000000
  0.74500000	 -5.31167256	443.94706100	 26.09468310	  0.33654311	 -0.00040358	 -0.15767888	  0.00000000	  0.00000000	  0.00000000	 -0.30181907	  0.00246885	  0.10097818	  0.00240132	 -1.85514016	 -0.00118099	  0.00000000	  0.00000000	  0.00000000
  0.74600000	 -5.08862013	442.46694249	 25.88123865	  0.33722160	 -0.00040265	 -0.15776837	  0.00000000	  0.00000000	  0.00000000	 -0.30181907	  0.00246885	  0.10097818	  0.00242254	 -1.87153722	 -0.00119143	  0.00000000	  0.00000000	  0.00000000
  0.74700000	 -4.89354575	441.14139176	 25.69682917	  0.33787030	 -0.00040175	 -0.15786434	  0.00000000	  0.00000000	  0.00000000	 -0.30181907	  0.00246885	  0.10097818	  0.00244905	 -1.89201852	 -0.00120447	  0.00000000	  0.00000000	  0.00000000
  0.74800000	 -4.72059531	439.95446170	 25.53614116	  0.33849150	 -0.00040088	 -0.15796297	  0.00000000	  0.00000000	  0.00000000	 -0.30181907	  0.00246885	  0.10097818	  0.00247986	 -1.91581714	 -0.00121962	  0.00000000	  0.00000000	  0.00000000
  0.74900000	 -4.55918002	438.86921731	 25.38977537	  0.33909286	 -0.00040004	 -0.15805781	  0.00000000	  0.00000000	  0.00000000	 -0.30181907	  0.00246885	  0.10097818	  0.00251381	 -1.94204989	 -0.00123632	  0.00000000	  0.00000000	  0.00000000
  0.75000000	 -4.39655413	437.83912606	 25.24663914	  0.33968571	 -0.00039922	 -0.15814196	  0.00000000	  0.00000000	  0.00000000	 -0.30181907	  0.00246885	  0.10097818	  0.00254978	 -1.96983906	 -0.00125401	  0.00000000	  0.00000000	  0.00000000
  0.75100000	 -4.22193380	436.82480672	 25.09740872	  0.34028083	 -0.00039841	 -0.15821106	  0.00000000	  0.00000000	  0.00000000	 -0.30181907	  0.00246885	  0.10097818	  0.00258665	 -1.99832010	 -0.00127214	  0.00000000	  0.00000000	  0.00000000
  0.75200000	 -4.02964079	435.80626921	 24.93687212	  0.34088512	 -0.00039759	 -0.15826513	  0.00000000	  0.00000000	  0.00000000	 -0.30181907	  0.00246885	  0.10097818	  0.00262330	 -2.02663693	 -0.00129016	  0.00000000	  0.00000000	  0.00000000
  0.75300000	 -3.81944907	434.78375741	 24.76366804	  0.34150141	 -0.00039677	 -0.15830796	  0.00000000	  0.00000000	  0.00000000	 -0.30181907	  0.00246885	  0.10097818	  0.00265872	 -2.05399777	 -0.00130758	  0.00000000	  0.00000000	  0.00000000
  0.75400000	 -3.59490872	433.77128158	 24.57853396	  0.34213039	 -0.00039593	 -0.15834508	  0.00000000	  0.00000000	  0.00000000	 -0.30181907	  0.00246885	  0.10097818	  0.00269207	 -2.07976302	 -0.00132398	  0.00000000	  0.00000000	  0.00000000
